<svg viewBox="0 0 615 310" xmlns="http://www.w3.org/2000/svg">
    <defs>
        <linearGradient id="bgGradient" x1="0%" y1="0%" x2="100%" y2="100%">
            <stop offset="0%" style="stop-color:#FFB3D9; stop-opacity:1" />
            <stop offset="100%" style="stop-color:#A0E6FF; stop-opacity:1" />
        </linearGradient>
    </defs>
    <rect width="615" height="310" fill="url(#bgGradient)" />
    <rect x="5" y="5" width="605" height="300" stroke="#3CB5C8" fill="none" stroke-width="5" />
    <text x="50%" y="50%" dominant-baseline="middle" text-anchor="middle" font-size="60" font-weight="bold" fill="#FF6B35">M</text>
    <text x="70%" y="50%" dominant-baseline="middle" text-anchor="middle" font-size="60" font-weight="bold" fill="#2D5F5D">A</text>
    <text x="90%" y="50%" dominant-baseline="middle" text-anchor="middle" font-size="60" font-weight="bold" fill="#E63946">N</text>
    <text x="110%" y="50%" dominant-baseline="middle" text-anchor="middle" font-size="60" font-weight="bold" fill="#F4D03F">U</text>
    <text x="130%" y="50%" dominant-baseline="middle" text-anchor="middle" font-size="60" font-weight="bold" fill="#A8E6CF">E</text>
    <text x="150%" y="50%" dominant-baseline="middle" text-anchor="middle" font-size="60" font-weight="bold" fill="#FFB3D9">L</text>
    <text x="170%" y="50%" dominant-baseline="middle" text-anchor="middle" font-size="60" font-weight="bold" fill="#FF6B9D">A</text>
    <path d="M0,80 C40,20,80,0,100,80 C120,160,60,160,100,80 Z" fill="#A063D1" />
    <path d="M100,80 C140,20,180,0,200,80 C220,160,160,160,200,80 Z" fill="#F252B5" opacity="0.7" />
    <path d="M100,80 C140,20,180,0,200,80 C220,160,160,160,200,80 Z" fill="#FFBA73" opacity="0.7" />
    <path d="M20,80 C60,20,100,0,120,80 C140,160,80,160,120,80 Z" fill="#A063D1" />
    <path d="M120,100 C160,40,200,20,220,100 C240,180,180,180,220,100 Z" fill="#F252B5" opacity="0.7" />
    <path d="M320,50 C360,30,400,20,420,50 C440,80,380,80,420,50 Z" fill="#A063D1" />
    <g fill="none" stroke="#3CB5C8" stroke-width="0.5">
        <line x1="0" y1="0" x2="615" y2="0" />
        <line x1="0" y1="10" x2="615" y2="10" />
        <line x1="0" y1="20" x2="615" y2="20" />
        <line x1="0" y1="30" x2="615" y2="30" />
        <line x1="0" y1="40" x2="615" y2="40" />
        <line x1="0" y1="50" x2="615" y2="50" />
        <line x1="0" y1="60" x2="615" y2="60" />
        <line x1="0" y1="70" x2="615" y2="70" />
        <line x1="0" y1="80" x2="615" y2="80" />
        <line x1="0" y1="90" x2="615" y2="90" />
        <line x1="0" y1="100" x2="615" y2="100" />
        <line x1="0" y1="110" x2="615" y2="110" />
        <line x1="0" y1="120" x2="615" y2="120" />
        <line x1="0" y1="130" x2="615" y2="130" />
        <line x1="0" y1="140" x2="615" y2="140" />
        <line x1="0" y1="150" x2="615" y2="150" />
        <line x1="0" y1="160" x2="615" y2="160" />
        <line x1="0" y1="170" x2="615" y2="170" />
        <line x1="0" y1="180" x2="615" y2="180" />
        <line x1="0" y1="190" x2="615" y2="190" />
        <line x1="0" y1="200" x2="615" y2="200" />
        <line x1="0" y1="210" x2="615" y2="210" />
        <line x1="0" y1="220" x2="615" y2="220" />
        <line x1="0" y1="230" x2="615" y2="230" />
        <line x1="0" y1="240" x2="615" y2="240" />
        <line x1="0" y1="250" x2="615" y2="250" />
        <line x1="0" y1="260" x2="615" y2="260" />
        <line x1="0" y1="270" x2="615" y2="270" />
        <line x1="0" y1="280" x2="615" y2="280" />
        <line x1="0" y1="290" x2="615" y2="290" />
        <line x1="0" y1="300" x2="615" y2="300" />
        <line x1="0" y1="0" x2="0" y2="310" />
        <line x1="10" y1="0" x2="10" y2="310" />
        <line x1="20" y1="0" x2="20" y2="310" />
        <line x1="30" y1="0" x2="30" y2="310" />
        <line x1="40" y1="0" x2="40" y2="310" />
        <line x1="50" y1="0" x2="50" y2="310" />
        <line x1="60" y1="0" x2="60" y2="310" />
        <line x1="70" y1="0" x2="70" y2="310" />
        <line x1="80" y1="0" x2="80" y2="310" />
        <line x1="90" y1="0" x2="90" y2="310" />
        <line x1="100" y1="0" x2="100" y2="310" />
        <line x1="110" y1="0" x2="110" y2="310" />
        <line x1="120" y1="0" x2="120" y2="310" />
        <line x1="130" y1="0" x2="130" y2="310" />
        <line x1="140" y1="0" x2="140" y2="310" />
        <line x1="150" y1="0" x2="150" y2="310" />
        <line x1="160" y1="0" x2="160" y2="310" />
        <line x1="170" y1="0" x2="170" y2="310" />
        <line x1="180" y1="0" x2="180" y2="310" />
        <line x1="190" y1="0" x2="190" y2="310" />
        <line x1="200" y1="0" x2="200" y2="310" />
        <line x1="210" y1="0" x2="210" y2="310" />
        <line x1="220" y1="0" x2="220" y2="310" />
        <line x1="230" y1="0" x2="230" y2="310" />
        <line x1="240" y1="0" x2="240" y2="310" />
        <line x1="250" y1="0" x2="250" y2="310" />
        <line x1="260" y1="0" x2="260" y2="310" />
        <line x1="270" y1="0" x2="270" y2="310" />
        <line x1="280" y1="0" x2="280" y2="310" />
        <line x1="290" y1="0" x2="290" y2="310" />
        <line x1="300" y1="0" x2="300" y2="310" />
        <line x1="310" y1="0" x2="310" y2="310" />
        <line x1="320" y1="0" x2="320" y2="310" />
        <line x1="330" y1="0" x2="330" y2="310" />
        <line x1="340" y1="0" x2="340" y2="310" />
        <line x1="350" y1="0" x2="350" y2="310" />
        <line x1="360" y1="0" x2="360" y2="310" />
        <line x1="370" y1="0" x2="370" y2="310" />
        <line x1="380" y1="0" x2="380" y2="310" />
        <line x1="390" y1="0" x2="390" y2="310" />
        <line x1="400" y1="0" x2="400" y2="310" />
        <line x1="410" y1="0" x2="410" y2="310" />
        <line x1="420" y1="0" x2="420" y2="310" />
        <line x1="430" y1="0" x2="430" y2="310" />
        <line x1="440" y1="0" x2="440" y2="310" />
        <line x1="450" y1="0" x2="450" y2="310" />
        <line x1="460" y1="0" x2="460" y2="310" />
        <line x1="470" y1="0" x2="470" y2="310" />
        <line x1="480" y1="0" x2="480" y2="310" />
        <line x1="490" y1="0" x2="490" y2="310" />
        <line x1="500" y1="0" x2="500" y2="310" />
        <line x1="510" y1="0" x2="510" y2="310" />
        <line x1="520" y1="0" x2="520" y2="310" />
        <line x1="530" y1="0" x2="530" y2="310" />
        <line x1="540" y1="0" x2="540" y2="310" />
        <line x1="550" y1="0" x2="550" y2="310" />
        <line x1="560" y1="0" x2="560" y2="310" />
        <line x1="570" y1="0" x2="570" y2="310" />
        <line x1="580" y1="0" x2="580" y2="310" />
        <line x1="590" y1="0" x2="590" y2="310" />
        <line x1="600" y1="0" x2="600" y2="310" />
        <line x1="0" y1="0" x2="0" y2="310" />
        <line x1="10" y1="0" x2="10" y2="310" />
        <line x1="20" y1="0" x2="20" y2="310" />
        <line x1="30" y1="0" x2="30" y2="310" />
        <line x1="40" y1="0" x2="40" y2="310" />
        <line x1="50" y1="0" x2="50" y2="310" />
        <line x1="60" y1="0" x2="60" y2="310" />
        <line x1="70" y1="0" x2="70" y2="310" />
        <line x1="80" y1="0" x2="80" y2="310" />
        <line x1="90" y1="0" x2="90" y2="310" />
    </g>
    <text x="5" y="305" font-size="12" fill="black">Grid: 10mm x 10mm</text>
    <text x="515" y="305" font-size="12" fill="black" text-anchor="end">Dimensions: 61.5cm x 31cm</text>
</svg>